<?xml version="1.0" encoding="UTF-8"?>
<!DOCTYPE svg PUBLIC "-//W3C//DTD SVG 1.1//EN" "http://www.w3.org/Graphics/SVG/1.1/DTD/svg11.dtd">
<!-- Creator: CorelDRAW X8 -->
<svg xmlns="http://www.w3.org/2000/svg" xml:space="preserve" width="206.766mm" height="225.165mm" version="1.1" style="shape-rendering:geometricPrecision; text-rendering:geometricPrecision; image-rendering:optimizeQuality; fill-rule:evenodd; clip-rule:evenodd"
viewBox="0 0 20677 22516"
 xmlns:xlink="http://www.w3.org/1999/xlink">
 <defs>
  <style type="text/css">
   <![CDATA[
    .fil0 {fill:#34B2FF;fill-rule:nonzero}
   ]]>
  </style>
 </defs>
 <g id="Layer_x0020_1">
  <metadata id="CorelCorpID_0Corel-Layer"/>
  <path class="fil0" d="M3851 784l-1476 6126 -40 -10 1476 -6125 40 9zm-1 -12l1630 4491 -3115 1660 -20 -37 3084 -1643 -1618 -4457 39 -14zm1565 7502l19 -3060 3138 2113 -23 34 -3074 -2070 -19 2983 -41 0zm-3039 -1367l-461 4082 3518 -2739 3814 1897 -706 -2798 40 -10 728 2886 -3871 -1926 -3576 2783 473 -4180 41 5zm6914 3296l-4522 3248 645 -5164 -3066 -1363 17 -38 3094 1376 -637 5100 4445 -3193 24 34zm-3861 -1949l3126 -930 12 40 -3126 930 -12 -40zm2564 6216l-3163 -1030 753 1906 2410 -876zm-3192 -1083l3319 1081c-853,310 -1707,621 -2560,931 -267,-675 -534,-1351 -801,-2026l42 14zm-4 -1l3397 393 1064 -3599 40 12 -1074 3633 -3432 -398 5 -41zm3432 421l-154 674c-531,395 -1061,790 -1592,1184l-917 -272 11 -40 898 266 1563 -1162 150 -659 41 9zm-160 646l2528 1910 -4122 -700 7 -41 3954 671 -2392 -1807 25 -33zm2433 1889l-2309 -2526 31 -28 2308 2526 -30 28zm-4910 -974l1086 4297 -220 -4022 41 -2 244 4450 -1192 -4713 41 -10zm5670 2377l-751 -1384 -3691 3443 4442 -2059zm-727 -1427l785 1446c-1573,730 -3146,1458 -4718,2187 1306,-1219 2613,-2438 3920,-3657l13 24zm-11 -10l3994 1477 -3227 -9 0 -42 2993 9 -3774 -1396 14 -39zm-3804 3588l-3558 1762 -19 -37 3559 -1762 18 37zm4579 -2160l4570 1837 -1484 -1796 32 -26 1588 1921 -4722 -1898 16 -38zm4620 1876l787 -1369 -2309 -459 8 -40 2366 470 -816 1419 -36 -21zm830 -1401l3893 2285 -4709 -853 8 -41 4479 811 -3692 -2167 21 -35zm-16751 -18213l3837 761 -8 41 -3837 -761 8 -41zm251 3594l2139 3326 -1948 502 -11 -41 1893 -487 -2108 -3277 35 -23zm2162 3305l-1900 2032 -30 -29 1900 -2031 30 28zm-1783 3536l1290 594 -1131 1888 -36 -21 1108 -1849 -1248 -575 17 -37zm1273 587l2934 2393 -3939 1572 -15 -39 3873 -1546 -2879 -2348 26 -32zm-996 4541l4738 -212 -4514 3112 -24 -34 4395 -3030 -4593 206 -2 -42zm5802 4337l-5593 -1037 7 -41 5594 1037 -8 41zm-5521 -604l2002 2355 -840 285 -13 -39 782 -266 -1963 -2308 32 -27zm1778 2959l175 -642 1981 866 -17 38 -1937 -847 -161 595 -41 -10zm4568 -41l-859 -2377 3847 1999 -19 37 -3753 -1950 823 2277 -39 14zm3779 -4461l691 3904 -41 8 -691 -3904 41 -8zm2331 3716l2304 -1879 582 1526 -39 15 -561 -1473 -2260 1843 -26 -32zm2307 -1862l1875 1324 -24 34 -1875 -1324 24 -34zm-12796 1861c95,0 173,77 173,173 0,96 -78,174 -173,174 -96,0 -174,-78 -174,-174 0,-96 78,-173 174,-173zm3558 -1762c96,0 173,78 173,174 0,96 -77,173 -173,173 -96,0 -174,-77 -174,-173 0,-96 78,-174 174,-174zm10027 -1645c94,0 170,76 170,169 0,94 -76,170 -170,170 -93,0 -169,-76 -169,-170 0,-93 76,-169 169,-169zm-801 1356c114,0 207,93 207,207 0,114 -93,207 -207,207 -114,0 -207,-93 -207,-207 0,-114 93,-207 207,-207zm4594 904c75,0 136,60 136,135 0,75 -61,136 -136,136 -75,0 -136,-61 -136,-136 0,-75 61,-135 136,-135zm-6130 -2691c75,0 136,61 136,136 0,75 -61,136 -136,136 -75,0 -135,-61 -135,-136 0,-75 60,-136 135,-136zm-3884 -1436c75,0 136,61 136,136 0,75 -61,136 -136,136 -75,0 -136,-61 -136,-136 0,-75 61,-136 136,-136zm774 1364c110,0 199,89 199,199 0,110 -89,199 -199,199 -110,0 -199,-89 -199,-199 0,-110 89,-199 199,-199zm-4812 -2032c65,0 118,53 118,118 0,65 -53,118 -118,118 -66,0 -119,-53 -119,-118 0,-65 53,-118 119,-118zm-907 -350c110,0 199,89 199,199 0,110 -89,199 -199,199 -110,0 -199,-89 -199,-199 0,-110 89,-199 199,-199zm-778 -1991c124,0 224,100 224,223 0,124 -100,224 -224,224 -123,0 -223,-100 -223,-224 0,-123 100,-223 223,-223zm3263 1126c88,0 160,72 160,160 0,89 -72,160 -160,160 -89,0 -161,-71 -161,-160 0,-88 72,-160 161,-160zm152 -643c75,0 136,61 136,136 0,75 -61,136 -136,136 -75,0 -136,-61 -136,-136 0,-75 61,-136 136,-136zm1069 -3616c75,0 136,61 136,136 0,75 -61,136 -136,136 -75,0 -136,-61 -136,-136 0,-75 61,-136 136,-136zm-717 -2888c100,0 182,82 182,182 0,101 -82,182 -182,182 -100,0 -182,-81 -182,-182 0,-100 82,-182 182,-182zm-3126 960c84,0 153,68 153,152 0,84 -69,152 -153,152 -84,0 -152,-68 -152,-152 0,-84 68,-152 152,-152zm-3547 2680c130,0 234,104 234,234 0,129 -104,234 -234,234 -129,0 -234,-105 -234,-234 0,-130 105,-234 234,-234zm3567 -5783c129,0 234,104 234,234 0,129 -105,234 -234,234 -129,0 -234,-105 -234,-234 0,-130 105,-234 234,-234zm-3100 1731c86,0 155,69 155,155 0,85 -69,154 -155,154 -85,0 -154,-69 -154,-154 0,-86 69,-155 154,-155zm1476 -6125c85,0 154,69 154,154 0,86 -69,155 -154,155 -86,0 -155,-69 -155,-155 0,-85 69,-154 155,-154z"/>
 </g>
</svg>
